PathFileType	4	(X/Y/Z)	C:\Documents and Settings\mvidt\Desktop\Forward_reach_ACS_12-5-11\acs_forward8.trc
DataRate	CameraRate	NumFrames	NumMarkers	Units	OrigDataRate	OrigDataStartFrame	OrigNumFrames
200.00	200.00	      41	10	mm	200.00	751	      1000
Frame#	Time	R.Clavicle			C7			R.Shoulder			R.Bicep			R.Elbow.Lateral			R.Forearm			R.Radius			Handle			R.Elbow.Medial			R.Ulna			
		X1	Y1	Z1	X2	Y2	Z2	X3	Y3	Z3	X4	Y4	Z4	X5	Y5	Z5	X6	Y6	Z6	X7	Y7	Z7	X8	Y8	Z8	X9	Y9	Z9	X10	Y10	Z10	

751	3.750	-385.08344	340.51907	306.92856				-431.77100	167.23540	320.68060	-368.47372	123.82985	130.89000	-381.40009	78.31799	29.64091	-305.38004	90.81910	85.63636	-165.26166	110.00365	137.97882	-51.85106	104.10007	199.60951	-387.63083	164.63409	-6.88874	-151.81683	59.07039	69.56223	
752	3.755	-385.08344	340.51907	306.92856				-431.44104	167.07031	320.61749	-368.64523	124.23010	130.55754	-381.56140	78.37241	29.55112	-305.38004	90.81910	85.63636	-165.67612	110.39890	137.59979	-51.67977	103.81902	199.15239	-387.63083	164.63409	-6.88874	-151.97745	58.40180	69.68523	
753	3.760	-385.08344	340.51907	306.92856				-431.28497	167.41586	320.75714	-368.22418	123.24844	130.65088	-381.72272	78.42682	29.46133	-305.27649	90.82605	85.70841	-165.86130	110.37223	137.44368	-51.81733	104.37222	198.83672	-388.53873	164.28717	-6.79406	-151.65494	58.24247	69.34934	
754	3.765	-386.19199	338.85083	306.60464				-431.28497	167.41586	320.75714	-369.03540	123.57804	130.37440	-381.88403	78.48124	29.37154	-306.35419	90.88922	85.26215	-166.07153	111.02003	136.90836	-51.80246	104.17012	198.52644	-387.25565	166.50969	-5.92666	-152.12793	58.79612	69.14192	
755	3.770	-386.19199	338.85083	306.60464				-431.28497	167.41586	320.75714	-368.90704	123.95766	129.91084	-382.04538	78.53566	29.28175	-306.48535	91.31377	84.86626	-166.39963	110.80175	136.39288	-52.19709	104.66164	197.54282	-387.25565	166.50969	-5.92666	-151.97903	58.53407	69.07704	
756	3.775	-386.19199	338.85083	306.60464				-431.28497	167.41586	320.75714	-368.90704	123.95766	129.91084	-382.20670	78.59007	29.19196	-306.74469	91.08559	84.55086	-166.33669	110.66741	136.28723	-51.96353	104.43912	197.48993	-387.25565	166.50969	-5.92666	-152.11053	58.14124	69.11712	
757	3.780	-386.19199	338.85083	306.60464				-431.28497	167.41586	320.75714	-368.90704	123.95766	129.91084	-382.36801	78.64449	29.10217	-306.74469	91.08559	84.55086	-166.33669	110.66741	136.28723	-51.79079	104.17951	196.67142	-387.25565	166.50969	-5.92666	-152.78239	58.00661	68.69213	
758	3.785	-386.19199	338.85083	306.60464				-431.28497	167.41586	320.75714	-369.13858	124.36228	129.60445	-382.52936	78.69891	29.01238	-307.13452	91.20537	84.37374	-166.33669	110.66741	136.28723	-50.97317	104.28391	196.83174	-388.77191	165.81778	-6.45881	-152.92429	58.17263	68.62989	
759	3.790	-386.19199	338.85083	306.60464				-431.28497	167.41586	320.75714	-369.13858	124.36228	129.60445	-382.69067	78.75333	28.92259	-307.13452	91.20537	84.37374	-165.94830	111.38927	135.01778	-50.81351	104.51337	196.04816	-385.96237	168.48521	-5.46795	-153.23117	58.26626	68.10204	
760	3.795	-384.94540	339.39847	307.19055				-431.28497	167.41586	320.75714	-369.13858	124.36228	129.60445	-382.85199	78.80775	28.83280	-306.82162	91.65080	83.75630	-166.12378	111.01031	135.06322	-50.81351	104.51337	196.04816	-389.84872	165.21762	-7.49842	-153.10576	58.07627	67.74856	
761	3.800	-384.94540	339.39847	307.19055				-431.28497	167.41586	320.75714	-369.13858	124.36228	129.60445	-383.01331	78.86217	28.74301	-306.82162	91.65080	83.75630	-165.85735	110.63908	134.47491	-51.47220	104.80777	195.30022	-388.55261	167.19554	-7.03825	-153.60338	57.46152	67.10202	
762	3.805	-384.94540	339.39847	307.19055				-431.28497	167.41586	320.75714	-369.13858	124.36228	129.60445	-383.17465	78.91659	28.65322	-307.11588	91.48440	83.45795	-165.99718	110.88392	134.25748	-51.43245	104.93117	194.99001	-390.14279	166.48883	-7.48629	-153.78981	57.51822	66.78149	
763	3.810	-384.94540	339.39847	307.19055				-431.28497	167.41586	320.75714	-369.13858	124.36228	129.60445	-383.33597	78.97100	28.56343	-306.97052	91.18305	83.35938	-166.14253	110.22407	134.41690	-51.17943	104.52859	194.91194	-391.44113	164.50902	-7.94727	-154.11749	57.86356	66.58146	
764	3.815	-384.94540	339.39847	307.19055				-431.28497	167.41586	320.75714	-369.13858	124.36228	129.60445	-383.49728	79.02542	28.47364	-307.08054	90.95998	83.14491	-166.12274	109.32143	132.25702	-51.26369	104.64877	194.42711	-391.44113	164.50902	-7.94727	-153.87206	57.54318	66.64012	
765	3.820	-384.94540	339.39847	307.19055				-431.15109	166.95317	320.92465	-369.13858	124.36228	129.60445	-383.65860	79.07984	28.38385	-307.08054	90.95998	83.14491	-166.22398	110.62032	132.83229	-51.30078	104.55492	194.09966	-390.14279	166.48883	-7.48629	-153.90817	57.36065	66.35957	
766	3.825	-384.94540	339.39847	307.19055				-431.28497	167.41586	320.75714	-369.13858	124.36228	129.60445	-383.81995	79.13426	28.29406	-307.08054	90.95998	83.14491	-166.15218	110.40582	132.73677	-51.22949	104.81992	193.52422	-391.44113	164.50902	-7.94727	-153.90817	57.36065	66.35957	
767	3.830	-384.94540	339.39847	307.19055				-431.64700	165.64415	317.91251	-369.34412	124.13147	129.32211	-383.98126	79.18867	28.20427	-307.08054	90.95998	83.14491	-166.15218	110.40582	132.73677	-51.14920	104.53699	193.01286	-391.44113	164.50902	-7.94727	-153.90817	57.36065	66.35957	
768	3.835	-384.94540	339.39847	307.19055				-431.64700	165.64415	317.91251	-369.20639	124.00413	129.32082	-384.14258	79.24310	28.11448	-307.08054	90.95998	83.14491	-166.43715	109.99060	132.67900	-51.34801	104.18461	192.53145	-391.44113	164.50902	-7.94727	-153.92253	57.00262	66.26403	
769	3.840	-384.94540	339.39847	307.19055				-430.82397	166.13795	318.71472	-369.13858	124.36228	129.60445	-384.30392	79.29752	28.02468	-307.62518	89.80923	83.09138	-166.59497	110.01485	132.49426	-51.38879	104.33013	192.59618	-391.44113	164.50902	-7.94727	-153.53563	57.13981	65.80148	
770	3.845	-384.94540	339.39847	307.19055				-430.82397	166.13795	318.71472	-369.34412	124.13147	129.32211	-384.46524	79.35194	27.93489	-307.62518	89.80923	83.09138	-166.71323	109.59592	131.97128	-51.54750	104.46247	192.27554	-391.44113	164.50902	-7.94727	-153.43903	57.08154	65.92490	
771	3.850	-384.94540	339.39847	307.19055				-430.82397	166.13795	318.71472	-369.34412	124.13147	129.32211	-384.62656	79.40635	27.84510	-307.62518	89.80923	83.09138	-166.90152	109.82642	131.92859	-50.38766	105.24242	192.14845	-391.44113	164.50902	-7.94727	-153.25626	57.14681	65.57258	
772	3.855	-384.94540	339.39847	307.19055				-432.67648	164.23726	316.97684	-369.64169	124.05573	129.08813	-384.78787	79.46077	27.75531	-307.62518	89.80923	83.09138	-166.90152	109.82642	131.92859	-50.77495	104.81348	192.07266	-391.44113	164.50902	-7.94727	-153.00740	57.30010	65.22662	
773	3.860	-384.94540	339.39847	307.19055				-432.68170	164.34985	317.49274	-369.38913	123.82230	129.08577	-384.94922	79.51519	27.66552	-307.62518	89.80923	83.09138	-166.90152	109.82642	131.92859	-50.53379	105.47788	191.79773	-392.72928	162.28212	-8.81742	-153.05365	56.93602	65.20181	
774	3.865	-384.94540	339.39847	307.19055				-431.35056	164.99770	318.10657	-370.47620	124.83345	129.10168	-385.11053	79.56960	27.57573	-307.62518	89.80923	83.09138	-166.90152	109.82642	131.92859	-50.46423	105.25607	191.70029	-392.72928	162.28212	-8.81742	-153.24902	57.01095	64.88841	
775	3.870	-384.94540	339.39847	307.19055				-432.35120	163.21347	317.51321	-369.43124	123.86124	129.08617	-385.27185	79.62402	27.48594	-307.42773	90.29268	83.17734	-166.90152	109.82642	131.92859	-51.08384	105.72215	190.98012	-392.72928	162.28212	-8.81742	-153.24902	57.01095	64.88841	
776	3.875	-384.94540	339.39847	307.19055				-432.35120	163.21347	317.51321	-369.77966	123.79729	128.82903	-385.43317	79.67844	27.39615	-307.42773	90.29268	83.17734	-166.90152	109.82642	131.92859	-50.95145	105.89326	190.83284	-392.72928	162.28212	-8.81742	-152.85620	57.35665	64.08905	
777	3.880	-384.94540	339.39847	307.19055				-432.35120	163.21347	317.51321	-369.77966	123.79729	128.82903	-385.59451	79.73286	27.30636	-307.42773	90.29268	83.17734	-167.13405	109.98404	131.76433	-50.95145	105.89326	190.83284	-392.72928	162.28212	-8.81742	-153.19577	57.69703	63.85524	
778	3.885	-384.94540	339.39847	307.19055				-432.35120	163.21347	317.51321	-369.77966	123.79729	128.82903	-385.75583	79.78728	27.21657	-307.42773	90.29268	83.17734	-167.13405	109.98404	131.76433	-50.95145	105.89326	190.83284	-392.72928	162.28212	-8.81742	-153.19577	57.69703	63.85524	
779	3.890	-384.94540	339.39847	307.19055				-431.84790	163.69119	317.19736	-369.43951	123.79868	129.03888	-385.91714	79.84170	27.12678	-307.42773	90.29268	83.17734	-166.82983	109.61170	131.83331	-50.77913	105.61094	190.37489	-392.72928	162.28212	-8.81742	-153.51257	57.92525	63.50495	
780	3.895	-386.05350	337.72998	306.86694				-431.58624	163.85339	317.03546	-369.07944	123.77390	128.88171	-386.07849	79.89612	27.03699	-307.42773	90.29268	83.17734	-166.92557	110.01206	131.22125	-50.61330	105.45851	190.48532	-392.72928	162.28212	-8.81742	-153.19577	57.69703	63.85524	
781	3.900	-384.94540	339.39847	307.19055				-430.97873	164.30945	316.82782	-369.77966	123.79729	128.82903	-386.23981	79.95053	26.94720	-307.75879	89.63956	82.97842	-167.06479	110.29243	130.95743	-50.61609	105.99908	190.26053	-394.13364	161.57556	-9.70535	-153.51257	57.92525	63.50495	
782	3.905	-386.05350	337.72998	306.86694				-431.00128	164.33018	316.43835	-369.67688	124.10135	128.45793	-386.40112	80.00495	26.85741	-307.75879	89.63956	82.97842	-166.96448	111.04391	130.36336	-50.08698	106.22825	189.96111	-394.53036	161.27748	-10.55514	-153.51257	57.92525	63.50495	
783	3.910	-386.05350	337.72998	306.86694				-431.00128	164.33018	316.43835	-369.67688	124.10135	128.45793	-386.56244	80.05937	26.76762	-307.22650	89.92377	83.14623	-167.09605	110.99453	130.52461	-49.99532	106.56587	189.73242	-393.23956	163.50697	-9.68279	-153.82014	58.01887	62.97612	
784	3.915	-386.05350	337.72998	306.86694				-430.39874	164.19536	316.50223	-370.49741	124.39275	128.53273	-386.72379	80.11379	26.67783	-307.75879	89.63956	82.97842	-166.88513	111.22574	130.34059	-50.04760	106.69337	189.60506	-394.53036	161.27748	-10.55514	-154.04807	57.68417	62.89306	
785	3.920	-386.05350	337.72998	306.86694				-430.39874	164.19536	316.50223	-371.49234	125.60468	127.76208	-386.88510	80.16821	26.58804	-307.75879	89.63956	82.97842	-166.88513	111.22574	130.34059	-49.92801	106.63478	189.53554	-391.93985	165.48793	-9.22070	-154.36710	58.01169	62.68491	
786	3.925	-386.05350	337.72998	306.86694				-430.39874	164.19536	316.50223	-371.48718	125.58165	127.69865	-387.04642	80.22263	26.49825	-308.27667	89.07730	82.75853	-166.38779	111.98079	129.62665	-50.02751	106.87112	189.30336	-391.93985	165.48793	-9.22070	-154.40276	58.75621	62.24665	
787	3.930	-386.05350	337.72998	306.86694				-430.39874	164.19536	316.50223	-371.48203	125.55862	127.63522	-387.20773	80.27705	26.40846	-308.27667	89.07730	82.75853	-166.18285	111.35944	130.01300	-50.02751	106.87112	189.30336	-391.93985	165.48793	-9.22070	-154.40276	58.75621	62.24665	
788	3.935	-386.05350	337.72998	306.86694				-430.39874	164.19536	316.50223	-371.47684	125.53558	127.57180	-387.36908	80.33146	26.31867	-306.91910	90.45528	82.39993	-165.72517	111.75504	129.70288	-50.90261	107.00854	188.69656	-391.93985	165.48793	-9.22070	-154.07402	58.52552	62.61891	
789	3.940	-386.05350	337.72998	306.86694				-430.81052	164.30347	316.07300	-371.47168	125.51255	127.50837	-387.53040	80.38588	26.22888	-307.43710	89.89291	82.17981	-166.10655	112.36495	129.02272	-50.89383	107.07503	188.76579	-391.93985	165.48793	-9.22070	-154.40276	58.75621	62.24665	
790	3.945	-386.05350	337.72998	306.86694				-431.00128	164.33018	316.43835	-371.46652	125.48952	127.44495	-387.69171	80.44030	26.13909	-306.73831	91.47390	81.23782	-166.11107	112.15340	129.29872	-51.07613	107.28563	188.68132	-391.93985	165.48793	-9.22070	-154.32582	58.73283	62.37888	
791	3.950	-386.05350	337.72998	306.86694				-431.32089	164.41618	316.05399	-371.46136	125.46648	127.38152	-387.85306	80.49471	26.04930	-307.89032	89.90102	82.08701	-166.10655	112.36495	129.02272	-50.92614	107.40732	188.22649	-391.93985	165.48793	-9.22070	-154.76582	59.14795	62.03742	
